<svg width="129" height="129" viewBox="0 0 129 129" fill="none" xmlns="http://www.w3.org/2000/svg">
<path d="M110.002 100.125C108.502 98.625 106.002 99.225 103.702 99.325C103.702 99.325 100.302 99.525 95.6017 98.325C93.2017 98.225 89.0017 97.725 84.7017 95.025C81.3017 92.925 79.2017 90.325 78.0017 88.625C77.8017 88.325 77.9017 87.825 78.2017 87.625C78.5017 87.425 79.0017 87.525 79.2017 87.825C80.3017 89.425 82.2017 91.825 85.4017 93.725C89.1017 96.025 92.7017 96.625 95.0017 96.725C95.8017 94.925 96.6017 92.825 97.0017 90.425C97.2017 89.525 97.3017 88.625 97.3017 87.825C101.802 87.325 105.002 86.025 105.302 84.125C105.302 83.825 105.302 83.625 105.202 83.225C102.302 81.125 99.6017 79.825 97.5017 78.925C95.3017 77.925 91.3017 76.325 86.0017 75.725C85.0017 75.625 84.9017 75.725 83.7017 75.625C83.7017 75.625 79.3017 75.225 75.4017 74.025C72.1017 73.025 68.9017 71.125 66.3017 69.325C61.8017 65.525 59.3017 63.425 55.4017 62.125C50.2017 60.325 42.6017 59.825 36.0017 63.125C34.0017 61.425 30.5017 57.825 29.3017 52.125C29.1017 51.225 28.4017 47.325 29.7017 42.625C31.2017 37.525 35.4017 30.625 41.6017 29.225C43.2017 28.825 45.6017 29.325 46.9017 27.725C47.1017 27.425 47.9017 26.425 47.6017 25.225C47.4017 24.225 46.7017 23.425 45.8017 23.125C45.2017 22.925 44.4017 23.025 43.5017 23.025C43.5017 23.025 43.4017 23.025 43.3017 23.025C37.5017 23.425 32.7017 27.425 32.7017 27.425C28.4017 31.025 21.7017 39.725 22.4017 51.425C22.9017 59.625 26.9017 65.425 29.3017 68.325C23.9017 74.625 22.0017 83.925 25.2017 89.925C27.7017 94.625 33.3017 97.025 32.7017 98.025C32.3017 98.825 29.4017 97.425 23.8017 97.825C22.6017 97.925 21.6017 98.025 20.6017 98.425C20.3017 98.525 15.9017 100.225 16.0017 102.825C16.1017 103.925 17.0017 104.925 18.0017 105.425C19.7017 106.225 21.3017 105.125 23.6017 104.625C26.1017 104.025 27.4017 104.725 31.5017 105.425C31.5017 105.425 39.0017 106.725 46.6017 106.525C49.7017 106.425 52.3017 106.025 54.4017 105.725C55.0017 105.325 55.8017 104.725 56.4017 103.825C57.1017 102.725 57.3017 101.525 57.3017 100.525C57.3017 99.525 57.1017 98.725 57.0017 98.125C56.3017 95.025 54.1017 93.125 53.3017 92.525C53.0017 92.325 52.9017 91.825 53.2017 91.525C53.4017 91.225 53.9017 91.125 54.2017 91.425C55.1017 92.125 57.6017 94.125 58.4017 97.825C58.5017 98.325 58.7017 99.325 58.7017 100.525C58.7017 101.725 58.4017 103.225 57.5017 104.625C57.3017 104.925 57.1017 105.225 56.9017 105.425C60.2017 106.025 65.0017 106.425 70.5017 105.125C72.1017 104.725 73.6017 104.225 74.9017 103.725C74.3017 103.325 73.6017 102.925 73.0017 102.525C70.1017 100.525 68.0017 98.325 66.5017 96.425C66.3017 96.125 66.3017 95.625 66.6017 95.425C66.9017 95.225 67.4017 95.225 67.6017 95.525C69.0017 97.225 71.0017 99.425 73.8017 101.325C75.1017 102.225 76.4017 102.925 77.6017 103.525C77.7017 103.625 77.8017 103.625 77.9017 103.825C78.4017 104.025 79.0017 104.325 79.7017 104.525C83.4017 105.825 86.1017 105.825 90.0017 106.025C98.8017 106.425 100.202 107.025 104.702 106.325C109.402 105.625 110.502 104.525 110.902 103.525C111.402 102.425 110.802 101.025 110.002 100.125ZM86.9017 90.725C86.9017 90.025 87.2017 89.525 87.5017 89.125C87.8017 88.725 88.0017 88.525 88.1017 88.525C88.4017 88.325 88.9017 88.325 89.1017 88.625C89.3017 88.925 89.3017 89.425 89.0017 89.625C89.0017 89.625 88.8017 89.725 88.7017 90.025C88.6017 90.225 88.4017 90.525 88.4017 90.825V90.925C88.4017 91.225 88.5017 91.525 88.6017 91.725C88.7017 91.925 88.8017 92.025 88.8017 92.125C89.1017 92.425 89.0017 92.825 88.8017 93.125C88.5017 93.425 88.1017 93.325 87.8017 93.125C87.7017 93.025 87.5017 92.825 87.3017 92.425C87.1017 92.025 86.9017 91.625 86.9017 91.025C86.9017 90.925 86.9017 90.825 86.9017 90.725Z" fill="#C33409"/>
</svg>
