<svg width="129" height="129" viewBox="0 0 129 129" fill="none" xmlns="http://www.w3.org/2000/svg">
<path d="M89.9382 22.8082C85.9382 19.6082 79.8382 19.0082 75.5382 21.7082C73.5382 22.9082 71.8382 25.3082 72.5382 27.5082C72.8382 28.4082 73.5382 29.1082 74.4382 29.2082C75.1382 29.2082 75.8382 28.7082 76.4382 28.3082C78.6382 26.8082 81.7382 26.6082 83.7382 27.2082C83.9382 27.3082 87.5382 28.3082 88.6382 31.6082C89.4382 34.0082 88.6382 36.1082 88.0382 37.5082C87.2382 39.5082 86.1382 40.7082 84.6382 42.2082C82.1382 44.8082 81.0382 45.0082 79.4382 46.6082C78.5382 47.5082 77.6382 48.8082 76.8382 50.6082C76.1382 50.1082 75.4382 49.6082 74.6382 49.1082C72.4382 46.4082 69.0382 44.2082 64.7382 43.1082C61.5382 42.3082 58.1382 41.9082 55.2382 40.3082C51.7382 38.4082 49.2382 35.0082 45.7382 33.2082C44.1382 32.4082 42.1382 31.8082 41.0382 30.4082C39.3382 28.2082 40.0382 24.3082 37.5382 23.0082C35.8382 22.1082 33.5382 23.2082 32.6382 24.9082C31.7382 26.6082 31.9382 28.7082 32.3382 30.7082C33.4382 35.5082 35.9382 39.9082 39.5382 43.2082C40.7382 44.3082 42.1382 45.4082 43.0382 46.8082C44.2382 48.7082 44.4382 51.0082 44.8382 53.2082C45.7382 58.1082 47.9382 63.1082 51.0382 67.2082C49.9382 72.4082 50.9382 78.7082 51.3382 83.8082C51.8382 91.0082 52.8382 98.1082 54.2382 105.108C54.7382 107.308 55.2382 109.608 56.4382 111.508C57.6382 113.408 59.7382 114.908 62.0382 114.808C64.3382 114.708 66.4382 112.608 66.0382 110.308C65.8382 109.008 64.9382 108.008 64.2382 107.008C63.2382 105.508 62.7382 103.808 62.6382 102.108C62.2382 100.308 62.1382 98.7082 62.1382 97.2082C62.1382 95.3082 62.4382 93.8082 62.7382 92.5082C63.1382 91.1082 63.5382 90.0082 64.2382 88.5082C64.9382 87.0082 65.7382 85.2082 66.9382 82.3082C67.8382 80.0082 68.5382 78.1082 69.0382 76.8082C69.1382 76.5082 69.5382 76.3082 69.8382 76.4082C70.1382 76.5082 70.3382 76.9082 70.2382 77.2082C69.8382 78.5082 69.1382 80.4082 68.1382 82.7082C66.9382 85.7082 66.0382 87.5082 65.4382 89.0082C64.7382 90.4082 64.3382 91.4082 64.0382 92.8082C63.9382 93.2082 63.8382 93.7082 63.7382 94.1082C64.1382 94.0082 64.5382 93.9082 64.8382 93.9082C65.8382 93.9082 66.8382 94.3082 67.5382 95.1082C67.7382 95.4082 67.7382 95.8082 67.4382 96.0082C67.1382 96.2082 66.7382 96.2082 66.5382 95.9082C66.1382 95.4082 65.5382 95.2082 64.9382 95.2082C64.4382 95.2082 63.9382 95.4082 63.6382 95.7082C63.6382 96.1082 63.5382 96.6082 63.5382 97.1082C63.5382 98.4082 63.6382 99.9082 64.0382 101.508L64.1382 101.208C64.8382 101.908 65.7382 102.408 66.7382 102.908C68.2382 103.508 69.8382 103.708 71.2382 103.708C72.0382 105.308 72.9382 106.808 74.5382 107.508C75.1382 107.808 75.9382 107.908 76.5382 107.608C76.6382 107.508 76.7382 107.508 76.8382 107.408C74.1382 100.608 73.5382 92.5082 73.2382 88.7082C73.2382 88.3082 73.5382 88.0082 73.8382 88.0082C74.2382 88.0082 74.5382 88.3082 74.5382 88.6082C74.7382 92.5082 75.4382 100.708 78.2382 107.508C78.6382 108.408 79.0382 109.408 79.6382 110.308C80.2382 111.208 81.0382 112.008 82.0382 112.508C82.3382 112.708 83.6382 113.308 85.2382 113.308C85.8382 113.308 86.3382 113.208 86.9382 113.008C87.1382 112.908 87.4382 112.808 87.8382 112.608C88.2382 112.408 88.5382 112.108 88.8382 111.808C89.0382 111.608 89.1382 111.408 89.1382 111.108C89.1382 111.008 89.1382 110.908 89.1382 110.808C89.1382 110.508 89.0382 110.208 88.9382 109.908C88.8382 109.608 88.6382 109.408 88.6382 109.408C88.4382 109.108 88.1382 108.908 87.9382 108.808C87.6382 108.708 87.3382 108.508 87.0382 108.308C86.5382 108.008 86.1382 107.708 85.8382 107.308C85.5382 106.908 85.3382 106.408 85.2382 106.008C84.9382 105.108 84.9382 104.008 84.9382 103.108C84.9382 100.708 84.7382 95.7082 84.7382 89.1082C84.7382 87.0082 84.7382 84.8082 84.8382 82.4082C84.8382 82.0082 85.1382 81.7082 85.5382 81.8082C85.9382 81.8082 86.2382 82.1082 86.1382 82.5082C85.9382 85.1082 85.9382 87.3082 85.9382 89.3082C85.9382 89.8082 85.9382 90.2082 85.9382 90.6082C86.2382 89.8082 86.5382 88.9082 86.8382 88.1082C88.0382 84.8082 89.7382 80.3082 89.5382 74.2082C89.4382 71.6082 88.9382 63.2082 82.6382 56.0082C82.5382 55.9082 82.4382 55.8082 82.3382 55.7082C82.5382 54.5082 82.9382 53.5082 83.3382 52.8082C86.2382 47.0082 92.6382 46.7082 95.0382 40.1082C95.6382 38.5082 95.7382 37.1082 95.8382 36.3082C96.0382 31.3082 94.0382 25.9082 89.9382 22.8082ZM72.0382 94.0082C71.9382 94.3082 71.6382 94.4082 71.4382 94.3082C70.5382 93.9082 69.5382 93.7082 68.5382 93.6082C68.2382 93.6082 68.0382 93.3082 68.1382 93.1082C68.1382 92.8082 68.4382 92.6082 68.6382 92.7082C69.7382 92.8082 70.7382 93.1082 71.8382 93.5082C72.0382 93.5082 72.1382 93.8082 72.0382 94.0082ZM72.3382 91.6082C71.2382 91.6082 70.1382 91.6082 69.1382 91.6082C68.8382 91.6082 68.6382 91.4082 68.6382 91.1082C68.6382 90.8082 68.8382 90.6082 69.1382 90.6082C70.2382 90.6082 71.3382 90.6082 72.3382 90.6082C72.6382 90.6082 72.8382 90.8082 72.8382 91.1082C72.8382 91.3082 72.5382 91.6082 72.3382 91.6082Z" fill="#C3D5E5"/>
</svg>
