<svg width="129" height="129" viewBox="0 0 129 129" fill="none" xmlns="http://www.w3.org/2000/svg">
<path d="M108.911 79.2139C107.511 75.3139 105.511 71.5139 103.211 68.1139C101.211 65.1139 99.3109 62.9139 98.4109 61.9139C94.4109 57.3139 89.6109 53.1139 85.5109 49.9139C83.0109 47.2139 80.2109 45.7139 79.4109 45.3139C79.2109 45.2139 79.0109 45.1139 78.8109 45.0139C78.6109 44.9139 78.5109 44.8139 78.3109 44.7139V44.8139C68.4109 40.3139 58.3109 46.0139 57.8109 46.4139C57.3109 46.7139 56.9109 47.0139 56.5109 47.3139C56.3109 46.7139 56.1109 46.0139 55.7109 45.4139C53.4109 40.6139 49.2109 38.6139 47.8109 37.9139C42.3109 35.3139 34.5109 35.0139 28.7109 39.2139C24.3109 42.4139 22.6109 47.0139 22.1109 48.4139C21.0109 51.4139 20.9109 54.3139 20.8109 55.6139C20.6109 59.9139 21.2109 60.8139 21.0109 64.6139C20.9109 66.8139 20.5109 69.2139 18.8109 70.6139C17.4109 71.7139 15.2109 72.3139 15.0109 74.1139C14.9109 75.0139 15.5109 76.0139 16.4109 76.4139C17.2109 76.8139 18.3109 76.9139 19.2109 76.7139C22.8109 76.2139 25.8109 73.2139 26.4109 69.7139C26.7109 68.2139 26.5109 66.6139 26.4109 65.1139C26.2109 62.9139 25.7109 56.0139 28.3109 50.3139C29.2109 48.3139 30.9109 44.7139 34.8109 43.1139C38.7109 41.5139 43.8109 42.1139 47.2109 45.4139C49.8109 47.9139 50.6109 51.0139 50.8109 53.1139C46.6109 59.4139 46.0109 66.5139 45.9109 68.7139C45.8109 70.1139 45.2109 80.6139 51.8109 89.5139C47.4109 90.9139 42.7109 91.4139 38.1109 91.0139C37.5109 91.0139 36.9109 90.9139 36.4109 90.7139C34.3109 89.8139 33.4109 86.5139 31.1109 86.6139C29.4109 86.7139 28.5109 88.9139 28.8109 90.6139C29.0109 92.1139 29.8109 93.4139 30.9109 94.4139C32.2109 95.5139 33.9109 96.0139 35.5109 96.4139C45.0109 98.8139 54.9109 98.6139 64.7109 98.4139C68.2109 99.2139 71.6109 99.0139 75.4109 98.8139C75.8109 98.8139 76.2109 98.8139 76.6109 98.7139C81.4109 99.1139 86.2109 98.7139 90.9109 97.7139C91.4109 97.6139 91.8109 97.5139 92.2109 97.2139C92.9109 96.5139 92.6109 95.3139 91.9109 94.7139C91.2109 94.0139 90.2109 93.8139 89.3109 93.5139C88.7109 93.3139 88.1109 93.1139 87.6109 92.9139C88.3109 91.2139 88.3109 89.7139 88.3109 89.5139C88.3109 86.7139 86.8109 84.8139 84.7109 82.2139C84.3109 81.7139 83.9109 81.2139 83.6109 80.8139C84.2109 80.1139 84.8109 79.4139 85.4109 78.7139C85.6109 78.4139 85.6109 78.0139 85.3109 77.8139C85.0109 77.6139 84.6109 77.6139 84.4109 77.9139C83.8109 78.6139 83.2109 79.3139 82.6109 80.0139C82.4109 79.8139 82.1109 79.7139 81.8109 79.5139C82.1109 78.4139 82.4109 77.3139 82.9109 76.3139C83.0109 76.0139 82.9109 75.6139 82.5109 75.4139C82.2109 75.3139 81.8109 75.4139 81.6109 75.8139C81.1109 76.9139 80.8109 78.0139 80.5109 79.2139C78.7109 79.0139 76.9109 79.8139 76.7109 79.9139C75.4109 80.5139 74.9109 81.2139 73.9109 81.1139C72.7109 81.0139 71.9109 80.0139 71.8109 79.9139C70.3109 78.0139 70.7109 74.2139 72.6109 72.7139C74.3109 71.4139 75.9109 72.9139 80.1109 72.4139C80.7109 72.3139 81.9109 72.2139 83.3109 71.7139C85.8109 72.3139 88.2109 73.0139 90.5109 73.9139C93.1109 74.9139 95.8109 75.9139 98.0109 77.6139C99.3109 78.6139 100.411 79.8139 100.911 81.3139C101.511 83.0139 101.211 85.1139 102.111 86.7139C103.311 88.8139 106.511 89.3139 108.311 87.7139C109.411 86.7139 109.811 85.2139 109.811 83.7139C109.911 82.0139 109.411 80.6139 108.911 79.2139ZM80.6109 86.0139C81.0109 85.4139 81.6109 84.9139 82.3109 84.7139C82.7109 84.6139 83.0109 84.8139 83.1109 85.1139C83.2109 85.5139 83.0109 85.8139 82.7109 85.9139C82.3109 86.0139 82.0109 86.3139 81.7109 86.7139C81.5109 87.1139 81.3109 87.5139 81.3109 88.0139C81.3109 88.3139 81.4109 88.6139 81.5109 88.8139C81.7109 89.1139 81.5109 89.5139 81.2109 89.7139C80.9109 89.9139 80.5109 89.7139 80.3109 89.4139C80.1109 89.0139 80.0109 88.5139 80.0109 88.0139C80.0109 87.3139 80.2109 86.6139 80.6109 86.0139ZM77.0109 90.1139C77.3109 90.2139 77.4109 90.5139 77.3109 90.7139C76.9109 92.1139 76.4109 93.4139 75.9109 94.8139C75.8109 95.1139 75.5109 95.2139 75.2109 95.1139C74.9109 95.0139 74.8109 94.7139 74.9109 94.4139C75.4109 93.1139 75.9109 91.8139 76.3109 90.4139C76.4109 90.2139 76.7109 90.0139 77.0109 90.1139ZM71.5109 92.5139C72.5109 91.3139 73.6109 90.0139 74.6109 88.8139C74.8109 88.6139 75.1109 88.6139 75.3109 88.7139C75.5109 88.9139 75.5109 89.2139 75.4109 89.4139C74.4109 90.6139 73.3109 91.9139 72.3109 93.1139C72.1109 93.3139 71.8109 93.3139 71.6109 93.2139C71.3109 93.0139 71.3109 92.7139 71.5109 92.5139Z" fill="#C33409"/>
</svg>
