<svg width="129" height="129" viewBox="0 0 129 129" fill="none" xmlns="http://www.w3.org/2000/svg">
<g clip-path="url(#clip0_28591_163)">
<path d="M82.09 60.53C78.96 59.61 75.85 58.31 73.23 56.22C70.61 54.12 68.53 51.18 67.95 47.78C67.86 47.27 67.81 46.75 67.81 46.22C67.81 45.34 67.95 44.43 68.33 43.58C68.64 42.89 69.11 42.26 69.7 41.78C70.29 41.3 71.01 40.95 71.82 40.86C71.95 40.85 72.09 40.84 72.22 40.84C72.97 40.84 73.68 41.06 74.3 41.42C74.92 41.78 75.45 42.28 75.86 42.86C76.68 44.06 76.96 45.48 76.96 46.83V47.03C76.96 47.17 76.95 47.29 76.95 47.41C76.95 47.59 76.96 47.74 76.98 47.85C77 47.96 77.03 48.02 77.07 48.06C77.18 48.21 77.39 48.29 77.58 48.34C78.36 48.56 79.64 48.8 80.74 48.99C81.84 49.18 82.78 49.31 82.94 49.33C83.36 49.39 83.64 49.77 83.58 50.19C83.52 50.61 83.14 50.89 82.72 50.83C82.56 50.81 81.61 50.67 80.48 50.48C79.35 50.29 78.06 50.05 77.17 49.8C76.93 49.73 76.34 49.57 75.88 49C75.67 48.73 75.55 48.43 75.5 48.16C75.44 47.89 75.43 47.63 75.43 47.4C75.43 47.25 75.43 47.11 75.44 46.99V46.82C75.44 45.68 75.19 44.56 74.61 43.71C74.34 43.31 73.96 42.96 73.54 42.72C73.12 42.48 72.67 42.34 72.23 42.34C72.15 42.34 72.07 42.34 72 42.35C71.53 42.4 71.08 42.61 70.68 42.93C70.28 43.25 69.95 43.7 69.74 44.17C69.47 44.78 69.35 45.47 69.35 46.19C69.35 46.62 69.39 47.06 69.47 47.5C69.96 50.43 71.81 53.09 74.2 55C76.59 56.91 79.52 58.15 82.54 59.04C83.93 59.45 85.45 59.75 86.86 59.74C87.74 59.74 88.57 59.63 89.31 59.37C90.05 59.11 90.7 58.72 91.25 58.15C92.17 57.18 92.59 55.8 92.59 54.34C92.59 53.73 92.52 53.12 92.38 52.54C92.25 52 92.12 51.49 91.91 50.91C91.53 49.87 90.96 48.66 89.59 46.81C88.5 45.35 87.75 44.61 87.1 43.92C86.45 43.24 85.89 42.56 85.42 41.43C84.93 40.27 84.76 39.24 84.69 38.6C84.68 38.5 84.69 38.39 84.72 38.3C84.43 36.54 84.13 34.66 83.8 32.65C83.88 32.68 83.97 32.69 84.07 32.69C85.5 32.62 86.93 32.42 88.33 32.11C88.74 32.02 89 31.61 88.91 31.2C88.82 30.79 88.41 30.53 88 30.62C86.68 30.91 85.34 31.09 83.99 31.16C83.83 31.17 83.7 31.23 83.58 31.32C83.5 30.84 83.42 30.35 83.34 29.86C83.44 29.87 83.54 29.87 83.64 29.84C85.01 29.48 86.37 29.12 87.74 28.76C88.15 28.65 88.39 28.24 88.28 27.83C88.17 27.42 87.76 27.18 87.35 27.29C85.98 27.65 84.62 28.01 83.25 28.37C83.2 28.38 83.15 28.42 83.11 28.44C82.93 27.32 82.74 26.17 82.54 24.98C82.26 23.24 80.4 11.91 78.3 11.96C77.81 11.97 77.17 12.89 75.88 14.73C74.92 16.1 74.21 17.33 73.72 18.26C70 18.3 66.3 18.28 62.61 18.26C61.76 17.39 60.46 16.01 58.97 14.19C57.72 12.67 57.25 11.94 56.65 12C55.39 12.12 54.79 15.61 54.43 17.59C54.43 17.59 54.26 18.55 52.02 28.8C51.91 28.7 51.79 28.61 51.63 28.59C50.24 28.35 48.88 27.95 47.58 27.41C47.19 27.25 46.75 27.43 46.59 27.82C46.43 28.21 46.61 28.65 47 28.81C48.4 29.39 49.87 29.82 51.37 30.08C51.5 30.1 51.63 30.08 51.75 30.04C51.68 30.37 51.61 30.7 51.53 31.04C51.45 31.01 51.36 31 51.28 31C51.06 31.01 50.83 31.01 50.6 31.01C49.54 31.01 48.48 30.9 47.44 30.69C47.03 30.61 46.63 30.87 46.54 31.28C46.46 31.69 46.72 32.09 47.13 32.18C48.27 32.41 49.43 32.53 50.59 32.53C50.79 32.53 50.99 32.52 51.19 32.52C50.78 34.35 50.31 36.12 49.81 37.81C49.91 38 49.93 38.22 49.85 38.43C48.15 42.85 46.69 45.25 45.62 46.65C45.44 46.89 45.08 47.34 44.65 48.03C44.23 48.71 43.74 49.61 43.33 50.69C43.12 51.24 42.97 51.78 42.83 52.37C42.69 52.96 42.62 53.57 42.62 54.17C42.62 55.63 43.05 57.01 43.96 57.98C44.51 58.56 45.15 58.95 45.89 59.2C46.63 59.45 47.46 59.57 48.34 59.57C49.75 59.57 51.27 59.27 52.66 58.87C55.68 57.98 58.61 56.74 61 54.83C63.39 52.92 65.24 50.26 65.73 47.33C65.8 46.89 65.85 46.45 65.85 46.02C65.85 45.3 65.73 44.61 65.46 44C65.25 43.52 64.92 43.08 64.52 42.76C64.12 42.43 63.67 42.23 63.2 42.18C63.12 42.17 63.04 42.17 62.97 42.17C62.53 42.17 62.07 42.3 61.66 42.55C61.24 42.79 60.86 43.14 60.59 43.54C60 44.39 59.76 45.5 59.76 46.65V46.82C59.76 46.94 59.77 47.08 59.77 47.23C59.77 47.46 59.76 47.71 59.7 47.99C59.64 48.26 59.53 48.56 59.32 48.83C58.86 49.4 58.27 49.56 58.03 49.63C57.14 49.88 55.84 50.12 54.72 50.31C53.6 50.5 52.65 50.64 52.48 50.66C52.06 50.72 51.68 50.43 51.62 50.02C51.56 49.6 51.85 49.22 52.26 49.16C52.41 49.14 53.35 49 54.46 48.82C55.56 48.63 56.84 48.39 57.62 48.17C57.81 48.12 58.02 48.04 58.13 47.89C58.16 47.85 58.19 47.79 58.22 47.68C58.24 47.57 58.25 47.42 58.25 47.24C58.25 47.12 58.25 47 58.24 46.86C58.24 46.79 58.24 46.72 58.24 46.66C58.24 45.31 58.52 43.89 59.34 42.69C59.75 42.1 60.28 41.61 60.9 41.25C61.52 40.89 62.23 40.67 62.98 40.67C63.11 40.67 63.24 40.68 63.38 40.69C64.18 40.78 64.91 41.12 65.5 41.61C66.09 42.09 66.56 42.72 66.87 43.41C67.25 44.26 67.39 45.16 67.39 46.05C67.39 46.58 67.34 47.11 67.25 47.61C66.67 51.01 64.59 53.95 61.97 56.05C59.35 58.14 56.24 59.44 53.11 60.36C51.63 60.8 49.98 61.13 48.36 61.13C47.35 61.13 46.36 61 45.42 60.68C44.48 60.36 43.6 59.83 42.87 59.06L42.86 59.05C39.53 61.49 36.87 63.75 34.89 65.55C33.26 67.03 32.04 68.24 31.17 69.38C30.31 70.52 29.79 71.57 29.52 72.81C29.39 73.4 29.35 73.9 29.35 74.34C29.35 75.28 29.56 75.85 29.64 76.07C30.35 77.98 32.23 78.95 32.63 79.14C33.81 79.73 35.57 80.08 37.61 80.45C40.09 80.92 41.58 81.18 42.67 81.39C43.75 81.6 44.44 81.77 45.24 82.04C45.71 82.19 46.42 82.45 47.28 82.84C47.57 82.97 47.74 83.26 47.73 83.57C47.73 83.6 47.73 83.66 47.73 83.74C47.73 83.98 47.76 84.42 47.9 84.88C48.04 85.35 48.29 85.83 48.73 86.23C49.28 86.72 49.97 86.93 50.71 86.94C51.47 86.94 52.25 86.69 52.8 86.33C53.43 85.91 53.81 85.34 54.04 84.7C54.27 84.06 54.34 83.36 54.34 82.78C54.34 82.2 54.27 81.75 54.25 81.63C54.15 81.04 53.97 80.57 53.71 80.08C53.45 79.59 53.09 79.09 52.67 78.48C51.31 76.55 49.79 75.56 49.5 75.37C48.31 74.61 47.19 74.23 46.41 74.03C46 73.92 45.76 73.51 45.86 73.1C45.97 72.69 46.38 72.45 46.79 72.55C47.68 72.78 48.96 73.21 50.32 74.08C50.69 74.32 52.39 75.43 53.92 77.59C54.34 78.19 54.73 78.74 55.06 79.34C55.38 79.94 55.64 80.6 55.77 81.36C55.8 81.53 55.88 82.06 55.88 82.76C55.88 82.78 55.88 82.81 55.88 82.83C57.12 83.28 58.32 83.64 59.42 83.92C58.14 89.3 54.17 93.76 48.05 95.11C43.19 96.18 38.35 93.85 34.78 90.41C33.53 89.2 31.83 86.2 29.87 87.45C28.33 88.44 29.25 90.58 29.86 91.94C34.25 101.81 46.49 103.66 54.46 98.49C59.96 94.92 63.2 90.39 64.44 85.02C65.94 85.31 67.53 85.56 69.17 85.63C70.36 90.99 70.23 95.09 69.72 98.14C69.42 99.97 68.58 103.82 70.61 105.77C72.47 107.56 75.91 106.94 76.52 106.83C77.86 106.59 79.67 106.16 80.51 104.64C81.27 103.25 80.88 101.22 79.47 100.49C78.87 100.18 78.09 100.06 77.75 99.47C77.45 98.95 77.6 98.35 77.67 98.06C81.21 84.18 82.98 79.55 82.98 79.55C83.39 78.61 83.79 77.63 84.17 76.59C84.39 75.99 84.6 75.4 84.79 74.81C85.58 72.96 86.17 71.13 86.66 69.54C87.47 66.93 87.86 64.77 87.75 61.28C87.45 61.3 87.15 61.32 86.85 61.32C85.22 61.29 83.58 60.96 82.09 60.53ZM71.81 26.7C72.09 26.39 72.57 26.36 72.88 26.64C73.68 27.35 74.72 27.79 75.78 27.87C75.88 27.88 75.98 27.88 76.08 27.88C76.37 27.88 76.62 27.84 76.83 27.75C76.96 27.7 77.07 27.61 77.16 27.52C77.24 27.43 77.29 27.34 77.31 27.26C77.4 26.85 77.81 26.59 78.22 26.68C78.63 26.77 78.89 27.18 78.8 27.59C78.71 27.97 78.52 28.3 78.28 28.56C78.04 28.82 77.75 29.01 77.44 29.15C76.99 29.34 76.52 29.4 76.1 29.4C75.96 29.4 75.82 29.39 75.68 29.38C74.28 29.27 72.94 28.7 71.89 27.77C71.56 27.49 71.53 27.01 71.81 26.7ZM63.41 27.9C62.63 28.97 61.4 29.67 60.07 29.78C59.94 29.79 59.82 29.8 59.69 29.8C58.49 29.8 57.32 29.33 56.46 28.49C56.16 28.2 56.15 27.72 56.45 27.42C56.74 27.12 57.22 27.11 57.52 27.41C58.08 27.96 58.9 28.29 59.69 28.29C59.77 28.29 59.86 28.29 59.94 28.28C60.81 28.21 61.67 27.72 62.18 27.02C62.43 26.68 62.9 26.61 63.24 26.85C63.58 27.08 63.66 27.56 63.41 27.9ZM67.36 33.47C67.01 33.69 66.61 33.79 66.22 33.79C65.68 33.79 65.09 33.59 64.69 33.09C64.43 32.76 64.49 32.28 64.81 32.02C65.14 31.76 65.62 31.82 65.88 32.14C65.92 32.2 66.04 32.27 66.22 32.27C66.34 32.27 66.47 32.23 66.56 32.18C66.69 32.1 66.81 31.97 66.9 31.8C66.99 31.63 67.06 31.41 67.08 31.2C67.12 30.82 67.44 30.53 67.82 30.52C68.2 30.51 68.53 30.78 68.59 31.16C68.62 31.38 68.7 31.6 68.8 31.77C68.9 31.94 69.02 32.07 69.15 32.15C69.24 32.21 69.38 32.25 69.5 32.24C69.67 32.24 69.79 32.18 69.83 32.12C70.1 31.8 70.58 31.76 70.9 32.02C71.22 32.29 71.26 32.77 71 33.09C70.6 33.56 70.03 33.76 69.5 33.76C69.1 33.76 68.7 33.66 68.35 33.44C68.17 33.33 68.01 33.19 67.87 33.04C67.72 33.21 67.55 33.35 67.36 33.47Z" fill="#C3D5E5"/>
</g>
<defs>
<clipPath id="clip0_28591_163">
<rect width="63.57" height="95" fill="white" transform="translate(29 12)"/>
</clipPath>
</defs>
</svg>
