<svg width="129" height="129" viewBox="0 0 129 129" fill="none" xmlns="http://www.w3.org/2000/svg">
<path d="M111.666 42.6172C111.566 42.0172 111.466 41.3172 110.966 41.0172C110.266 40.6172 109.366 41.1172 108.666 41.6172C108.466 41.7172 108.266 41.9172 108.166 42.0172C107.866 41.5172 107.466 41.0172 106.966 40.2172C106.466 39.5172 106.166 39.2172 105.766 39.1172C104.966 39.0172 104.366 39.9172 104.066 40.6172C103.266 42.3172 102.566 43.8172 102.066 44.9172C100.566 44.4172 99.1657 44.3172 97.8657 44.1172C97.0657 44.0172 90.7657 43.3172 86.7657 46.2172C85.9657 45.3172 85.0657 44.4172 84.2657 43.5172C84.0657 43.2172 83.5657 43.2172 83.3657 43.5172C83.0657 43.7172 83.0657 44.2172 83.3657 44.4172C84.1657 45.3172 85.0657 46.2172 85.8657 47.1172C85.7657 47.2172 85.6657 47.4172 85.4657 47.5172C85.0657 47.3172 84.5657 47.1172 84.1657 46.9172C83.2657 46.5172 82.3657 46.2172 81.5657 45.9172C81.2657 45.8172 80.8657 46.0172 80.7657 46.3172C80.6657 46.6172 80.8657 47.0172 81.1657 47.1172C81.9657 47.4172 82.8657 47.7172 83.7657 48.1172C84.0657 48.2172 84.4657 48.4172 84.7657 48.5172C84.3657 49.1172 83.8657 50.0172 83.6657 51.1172C83.2657 53.1172 84.0657 53.6172 83.7657 55.0172C83.6657 55.3172 83.5657 55.6172 83.4657 55.9172C83.5657 56.0172 83.5657 56.1172 83.5657 56.3172C83.5657 56.7172 83.2657 56.9172 82.8657 56.9172C82.7657 57.0172 82.6657 57.1172 82.5657 57.3172L82.6657 56.9172C73.8657 56.3172 67.2657 55.8172 63.6657 55.3172C63.4657 55.3172 63.1657 55.2172 62.7657 55.2172C61.9657 55.2172 60.6657 55.3172 59.3657 55.7172C58.6657 55.9172 58.0657 56.3172 57.4657 56.7172C56.9657 57.1172 56.5657 57.7172 56.2657 58.3172C56.1657 58.6172 56.0657 59.0172 56.0657 59.3172C56.0657 59.8172 56.1657 60.2172 56.3657 60.6172C56.5657 61.0172 56.8657 61.3172 57.2657 61.5172C57.6657 61.7172 58.0657 61.8172 58.4657 61.8172C59.1657 61.8172 59.8657 61.6172 60.7657 61.3172C61.5657 61.0172 62.4657 60.7172 63.4657 60.5172C63.7657 60.4172 64.1657 60.4172 64.4657 60.4172C65.3657 60.4172 66.1657 60.6172 67.0657 60.9172C67.9657 61.2172 68.9657 61.6172 70.1657 62.0172C72.4657 62.8172 75.6657 64.2172 79.1657 66.5172C79.4657 66.7172 79.5657 67.1172 79.3657 67.4172C79.1657 67.7172 78.7657 67.8172 78.4657 67.6172C75.0657 65.3172 71.9657 64.0172 69.7657 63.2172C68.4657 62.8172 67.4657 62.4172 66.6657 62.1172C66.3657 62.0172 66.1657 61.9172 65.8657 61.9172C66.0657 62.2172 66.3657 62.6172 66.5657 63.0172C67.3657 64.5172 67.5657 66.1172 67.5657 67.4172C67.5657 68.8172 67.2657 70.0172 67.1657 70.5172C67.0657 70.9172 66.6657 71.1172 66.3657 71.0172C65.9657 70.9172 65.7657 70.5172 65.8657 70.2172C65.9657 69.7172 66.2657 68.7172 66.2657 67.4172C66.2657 66.2172 66.0657 64.9172 65.3657 63.6172C64.9657 62.8172 64.4657 62.2172 64.0657 61.7172C64.0657 61.7172 64.0657 61.7172 64.0657 61.6172C63.9657 61.6172 63.8657 61.6172 63.6657 61.6172C62.8657 61.7172 62.0657 62.0172 61.1657 62.3172C60.2657 62.6172 59.3657 62.9172 58.4657 62.9172C57.8657 62.9172 57.2657 62.8172 56.6657 62.5172C56.0657 62.2172 55.5657 61.6172 55.2657 61.0172C54.9657 60.4172 54.7657 59.7172 54.7657 59.1172C54.7657 58.6172 54.8657 58.1172 55.0657 57.6172C55.3657 56.7172 55.9657 56.0172 56.6657 55.5172C56.6657 55.5172 56.7657 55.4172 56.8657 55.4172C53.8657 54.0172 50.7657 52.9172 47.8657 51.4172C47.2657 51.1172 46.0657 50.3172 44.5657 49.1172C42.4657 47.5172 41.3657 46.6172 40.6657 45.4172C39.9657 44.3172 39.5657 42.1172 38.7657 37.7172C38.5657 36.7172 38.4657 35.7172 37.7657 34.7172C37.5657 34.4172 36.3657 32.8172 34.5657 33.0172C33.0657 33.2172 32.2657 34.6172 32.1657 34.7172C31.2657 36.2172 32.2657 37.5172 32.4657 40.5172C32.8657 44.5172 31.9657 44.8172 32.5657 48.3172C32.8657 49.9172 33.1657 51.7172 34.4657 53.5172C35.2657 54.6172 35.5657 54.8172 36.5657 56.1172C37.5657 57.4172 38.1657 58.9172 38.6657 60.4172C39.8657 63.9172 40.9657 67.5172 41.8657 71.1172C42.2657 72.8172 42.6657 74.5172 43.3657 76.1172C44.2657 82.7172 48.9657 87.2172 50.9657 89.0172C44.6657 89.0172 37.0657 88.6172 32.2657 87.4172C29.3657 86.6172 27.6657 85.4172 26.1657 84.1172C24.4657 82.6172 23.1657 80.4172 23.0657 78.1172C23.0657 77.5172 23.1657 76.8172 22.9657 76.2172C22.4657 74.5172 19.8657 74.2172 18.4657 75.4172C17.0657 76.6172 16.8657 78.6172 17.0657 80.4172C17.6657 86.7172 22.6657 91.3172 28.1657 93.4172C33.6657 95.5172 39.6657 95.6172 45.5657 95.6172C52.1657 95.7172 58.8657 95.7172 65.4657 95.8172C68.8657 96.2172 71.5657 95.9172 72.6657 95.8172C83.5657 94.7172 90.4657 88.0172 94.1657 84.6172C97.6657 81.2172 99.6657 78.1172 103.566 71.9172C108.466 64.1172 109.466 60.2172 109.666 58.0172L109.766 58.1172C111.566 53.2172 112.266 47.8172 111.666 42.6172ZM94.6657 61.6172C94.3657 61.7172 94.0657 61.6172 93.9657 61.4172C93.2657 60.0172 92.5657 58.6172 91.8657 57.2172C91.7657 56.9172 91.8657 56.6172 92.0657 56.5172C92.3657 56.4172 92.6657 56.5172 92.7657 56.7172C93.4657 58.1172 94.1657 59.5172 94.8657 60.9172C95.0657 61.2172 94.9657 61.5172 94.6657 61.6172ZM97.1657 59.0172C96.9657 59.2172 96.6657 59.3172 96.4657 59.1172C95.2657 58.1172 94.1657 57.0172 93.2657 55.8172C93.0657 55.6172 93.1657 55.3172 93.3657 55.1172C93.5657 54.9172 93.8657 55.0172 94.0657 55.2172C94.9657 56.4172 95.9657 57.4172 97.0657 58.3172C97.2657 58.5172 97.3657 58.8172 97.1657 59.0172ZM97.6657 52.5172C97.1657 52.7172 96.5657 52.8172 96.0657 52.8172C95.2657 52.8172 94.5657 52.6172 93.8657 52.2172C92.7657 51.5172 91.9657 50.3172 91.8657 49.0172C91.8657 48.6172 92.1657 48.3172 92.4657 48.3172C92.8657 48.3172 93.1657 48.6172 93.1657 48.9172C93.2657 49.8172 93.7657 50.6172 94.4657 51.1172C94.8657 51.4172 95.4657 51.5172 95.9657 51.5172C96.3657 51.5172 96.6657 51.4172 97.0657 51.3172C97.3657 51.2172 97.7657 51.3172 97.9657 51.7172C98.1657 51.9172 97.9657 52.3172 97.6657 52.5172Z" fill="#C33409"/>
</svg>
