<svg width="129" height="129" viewBox="0 0 129 129" fill="none" xmlns="http://www.w3.org/2000/svg">
<path d="M98.1 34.4C86.3 19.7 68.7 17.6 60.1 17.6C53.4 17.1 46.5 18.8 40.8 22.5C33.8 27 28.9 34.4 26.3 42.3C23.8 50.2001 23.6 58.8 24.7 67C25.6 73.6 27.4 80.2 31.3 85.5C31.3 88.9 31.6 92.3 32.4 95.6C32.9 97.7 33.8 100 35.9 100.6C37.3 101 38.8 100.5 39.9 99.5C41 98.6 41.8 97.3 42.5 96.1L43.9 93.8C45.9 94.2001 47.9 94.2001 50 93.9C50.8 93.7001 51.6 93.6 51.6 93.6C53.5 93.1 54.7 92.2 55.3 91.7C56.5 90.8 57.5 89.9 58.3 89.1C57.6 87.8 56.9 86.1 56.4 84.2C55.7 81.8 55.5 79.6001 55.5 77.7001C55.5 76.4001 55.6 75.3 55.7 74.3C54.2 74.4 52.7 74.6 51.1 74.6C49.6 74.6 48 74.4 46.5 73.8C46 73.6 45.8 73.1 46 72.6C46.2 72.1 46.7 71.9 47.2 72.1C48.4 72.6 49.7 72.8 51.1 72.8C53.2 72.8 55.4 72.4001 57.7 72.4001C59.2 72.4001 60.7 72.6 62.1 73.1C64.2 73.9 65.7 75.4001 67.3 76.5C68.7 77.6 70.3 78.5 71.9 78.8C72.3 78.9 72.7 78.9001 73 78.9001C74.3 78.9001 75.5 78.5 76.2 77.7001C76.8 77.1001 77.1 76.3 77.1 75.5C77.1 74.9001 76.9 74.3001 76.5 73.9001C76.3 73.6001 76 73.4001 75.6 73.2001C75.2 73 74.8 72.9001 74.3 72.7001C73.3 72.4001 72.2 72.2001 71.2 71.5C69.9 70.7001 69.1 69.4001 68.5 68.2001C67.9 67 67.3 65.8001 66.6 64.9001C65.9 64 65.1 63.3 64.1 62.8C63.1 62.3 62 61.8 60.8 61.5C58.4 60.8 55.7 60.3 53.2 59.3C51.5 58.6 50 57.7001 48.7 56.3C48.4 55.9 48.4 55.3 48.8 55C49.2 54.7001 49.8 54.7 50.1 55.1C51.6 56.8 53.8 57.7001 56.2 58.4001C58.7 59.1001 61.4 59.6 63.8 60.6C65.4 61.3 66.9 62.3 68.1 63.8C69 65 69.5 66.3001 70.1 67.4001C70.7 68.5 71.3 69.4001 72.2 70C72.7 70.3 73.4 70.5 74.1 70.8C74.8 71 75.6 71.2 76.4 71.6C76.9 71.9 77.4 72.2001 77.9 72.7001C78.6 73.5 78.9 74.5 78.9 75.5C78.9 76.8 78.4 78.1 77.5 79C76.3 80.2001 74.6 80.7 73 80.7C72.5 80.7 72 80.7 71.5 80.6C69.5 80.2 67.7 79.1 66.2 78C64.6 76.8 63.1 75.5 61.5 74.8C60.3 74.3 59.1 74.2001 57.8 74.2001C57.7 74.2001 57.7 74.2001 57.6 74.2001C57.5 75.2001 57.3 76.4001 57.3 77.7001C57.3 79.5 57.5 81.5 58.1 83.7C58.7 86 59.6 87.9 60.5 89.3C60.5 89.4 60.5 89.4 60.6 89.5C61.8 90.7 63.2 92 63.9 94.3C64.3 95.8 63.9 95.7 64.3 101.5C64.4 102.6 64.4 103 64.1 103.5C63.2 105.3 60.3 104.4 58.5 105.5C56.7 106.5 56.7 109.4 58.2 110.8C59.6 112.3 61.9 112.6 63.9 112.2C70.4 111.2 74.6 105.1 77.9 99.4C81.3 93.5 84.5 87.4 86.6 81C87.9 77 88.8 72.9 89.3 68.8C89.7 66.3 90.2 62.4 90.2 57.6C90.2 50 89 42.1 85.7 35.3C92.1 39.5 94.6 45.7001 96.6 50.7001C97.7 53.6001 100.3 60.4 99.1 69.1C98.6 72.4 98.1 76.6001 95.4 80.9001C92.5 85.5001 88.5 88.4 89.5 90.9C89.9 91.9 90.9 92.3 91.1 92.4C94.5 93.8 99.9 88.4 102.2 85.5C103.2 84.2 107.4 78.6001 107.8 66.9001C108 62.1001 108.5 47.3 98.1 34.4ZM49.6 81.2C50.2 81.5 50.7 82 51.1 82.6C51.5 83.2 51.7 83.8 51.7 84.5C51.7 85 51.6 85.6 51.3 86.1C51 86.5 50.5 86.6 50 86.4C49.6 86.1 49.5 85.6 49.7 85.1C49.8 84.9 49.9 84.8 49.9 84.5C49.9 84.2 49.8 83.9 49.6 83.5C49.4 83.2 49.1 82.9 48.8 82.7C48.1 82.3 47.2 82.2 46.2 82.2C45.8 82.2 45.5 82.2 45.1 82.2C44.6 82.2 44.2 81.8 44.2 81.3001C44.2 80.8001 44.6 80.4001 45.1 80.4001C45.5 80.4001 45.9 80.4001 46.3 80.4001C47.2 80.5 48.4 80.6 49.6 81.2Z" fill="#C33409"/>
</svg>
