<svg width="129" height="129" viewBox="0 0 129 129" fill="none" xmlns="http://www.w3.org/2000/svg">
<path d="M76.5024 54.3608C75.2024 53.2608 73.8024 52.5608 71.9024 52.4608C71.7024 52.4608 71.5024 52.4608 71.3024 52.4608C69.7024 52.4608 68.4024 52.9608 67.5024 53.4608C67.2024 53.6608 66.7024 53.4608 66.6024 53.1608C66.4024 52.8608 66.6024 52.3608 66.9024 52.2608C67.9024 51.7608 69.5024 51.1608 71.3024 51.1608C71.5024 51.1608 71.8024 51.1608 72.0024 51.1608C74.2024 51.3608 75.8024 52.1608 77.3024 53.3608C78.8024 54.5608 80.1024 56.1608 81.6024 57.7608C84.4024 60.8608 88.3024 62.4608 92.3024 62.4608C94.8024 62.4608 97.2024 61.8608 99.5024 60.4608C100.102 60.0608 101.002 59.4608 101.802 58.7608C102.602 58.0608 103.402 57.1608 103.902 56.3608C104.202 55.8608 104.402 55.2608 104.402 54.8608C104.402 54.5608 104.302 54.2608 104.202 53.9608C104.102 53.6608 103.902 53.5608 103.802 53.4608C103.702 53.3608 103.502 53.3608 103.402 53.3608C103.202 53.3608 102.902 53.4608 102.602 53.5608C102.302 53.6608 102.002 53.9608 101.702 54.1608C100.502 55.1608 99.3024 56.1608 97.6024 56.7608C96.3024 57.2608 94.8024 57.5608 93.4024 57.5608C91.5024 57.5608 89.5024 57.0608 87.8024 56.1608C86.2024 55.2608 84.8024 54.0608 83.6024 52.8608C82.3024 51.6608 81.1024 50.3608 79.9024 49.3608C77.1024 46.9608 73.6024 45.8608 69.8024 45.4608C69.2024 45.3608 68.6024 45.3608 67.9024 45.3608C66.9024 45.3608 65.8024 45.4608 65.0024 45.7608C64.1024 46.0608 63.4024 46.5608 62.9024 47.3608C62.7024 47.6608 62.3024 47.7608 61.9024 47.5608C61.6024 47.3608 61.5024 46.9608 61.7024 46.5608C62.4024 45.4608 63.4024 44.7608 64.5024 44.3608C65.6024 43.9608 66.8024 43.8608 67.9024 43.8608C68.6024 43.8608 69.3024 43.9608 69.9024 43.9608C73.8024 44.4608 77.6024 45.5608 80.7024 48.1608C80.9024 48.3608 81.2024 48.5608 81.4024 48.7608C81.9024 48.0608 82.4024 47.4608 83.0024 46.9608C86.4024 44.1608 91.9024 44.4608 94.8024 41.0608C95.7024 39.9608 95.9024 39.5608 96.9024 38.7608C99.8024 36.5608 102.502 37.7608 104.002 35.7608C104.702 34.8608 105.002 33.3608 104.502 32.2608C103.302 29.8608 97.7024 30.6608 95.5024 30.9608C94.2024 31.1608 91.3024 31.5608 88.1024 33.1608C86.7024 33.8608 85.4024 34.6608 84.0024 35.1608C82.3024 35.7608 80.5024 35.7608 78.7024 35.7608C73.3024 35.9608 67.8024 36.6608 63.0024 38.9608C61.8024 39.5608 60.4024 40.4608 59.2024 41.4608C56.0024 41.0608 52.8024 41.7608 49.9024 43.0608C46.2024 42.1608 43.2024 42.0608 41.6024 42.2608C42.9024 37.8608 44.9024 35.3608 46.5024 33.7608C48.6024 31.6608 50.1024 31.3608 50.8024 29.2608C51.6024 26.7608 50.3024 25.0608 51.8024 22.7608C52.5024 21.6608 53.1024 21.5608 53.5024 20.4608C53.8024 19.3608 53.7024 17.7608 52.7024 16.8608C52.0024 16.1608 50.9024 15.8608 49.9024 16.0608C47.9024 16.3608 47.3024 18.4608 44.6024 22.3608C44.2024 22.8608 42.7024 25.1608 40.5024 27.4608C37.9024 30.2608 35.5024 31.5608 28.8024 38.3608C25.9024 41.2608 22.9024 44.6608 23.0024 48.7608C23.1024 52.6608 26.1024 55.7608 29.1024 57.9608C30.9024 59.2608 33.3024 60.6608 35.9024 61.9608C35.8024 62.4608 35.7024 62.9608 35.6024 63.4608C34.4024 70.2608 34.4024 78.0608 37.3024 84.4608C40.0024 90.4608 44.6024 93.8608 47.7024 95.7608C46.3024 100.861 44.4024 108.561 46.9024 110.261C49.3024 111.761 55.9024 110.161 58.7024 110.061C60.3024 109.961 64.1024 110.761 69.5024 111.061C71.3024 111.161 73.3024 111.261 74.2024 109.961C75.1024 108.661 74.2024 106.761 74.1024 106.661C73.4024 105.161 71.8024 104.261 69.1024 103.561C66.6024 102.861 62.3024 102.161 56.3024 103.061C57.1024 101.761 57.8024 100.461 58.4024 99.1608C61.7024 99.4608 65.6024 99.1608 70.8024 98.8608C73.1024 98.7608 74.9024 98.4608 76.4024 98.2608C76.2024 98.0608 75.9024 97.9608 75.7024 97.6608C75.0024 96.8608 74.8024 96.0608 74.7024 95.6608C74.6024 95.2608 74.9024 94.9608 75.3024 94.8608C75.7024 94.7608 76.0024 95.0608 76.1024 95.4608C76.1024 95.6608 76.3024 96.2608 76.7024 96.7608C77.3024 97.4608 78.1024 97.5608 78.3024 97.5608C78.4024 97.5608 78.6024 97.6608 78.7024 97.7608C80.9024 97.0608 81.9024 96.1608 82.6024 95.3608C84.0024 95.6608 85.4024 95.9608 86.8024 96.2608C87.2024 96.3608 87.6024 96.0608 87.6024 95.7608C87.6024 95.4608 87.4024 94.9608 87.1024 94.9608C85.8024 94.6608 84.6024 94.4608 83.3024 94.1608C83.4024 93.9608 83.5024 93.8608 83.5024 93.6608C84.9024 93.7608 86.4024 93.8608 87.8024 93.9608C88.2024 93.9608 88.5024 93.6608 88.5024 93.2608C88.5024 92.8608 88.2024 92.5608 87.8024 92.5608C86.5024 92.4608 85.1024 92.3608 83.8024 92.3608C84.0024 91.0608 83.9024 89.6608 83.9024 88.3608C83.8024 87.3608 83.7024 84.7608 82.5024 82.1608C82.9024 80.4608 83.5024 79.1608 83.9024 78.2608C84.1024 77.9608 84.5024 76.7608 85.4024 74.4608C85.8024 73.4608 86.0024 72.9608 85.7024 72.5608C85.2024 71.7608 83.4024 72.0608 82.2024 72.3608C81.9024 72.4608 81.5024 72.4608 81.2024 72.5608C80.9024 72.5608 80.4024 72.6608 79.9024 72.7608C79.9024 72.4608 79.9024 72.1608 79.9024 71.9608C79.9024 71.2608 79.9024 70.5608 79.8024 69.9608C79.8024 69.8608 79.8024 69.6608 79.7024 69.5608C79.7024 69.4608 79.7024 69.4608 79.6024 69.4608C79.6024 69.4608 79.5024 69.4608 79.5024 69.5608C76.4024 70.8608 73.6024 72.8608 71.4024 75.2608C70.6024 75.4608 69.9024 75.6608 69.3024 75.5608C68.9024 75.5608 68.6024 75.4608 68.3024 75.2608C67.2024 74.3608 67.2024 72.6608 67.2024 72.0608C67.2024 68.6608 69.6024 67.1608 71.2024 64.1608C71.7024 63.2608 72.0024 62.3608 72.3024 61.4608C74.5024 59.9608 76.3024 57.9608 77.7024 55.7608C77.3024 55.1608 76.9024 54.7608 76.5024 54.3608ZM69.3024 93.1608C67.9024 93.1608 66.4024 93.1608 65.0024 93.2608C64.8024 93.2608 64.6024 93.0608 64.6024 92.9608C64.6024 92.7608 64.8024 92.5608 64.9024 92.5608C66.3024 92.5608 67.8024 92.5608 69.2024 92.4608C69.4024 92.4608 69.6024 92.6608 69.6024 92.7608C69.6024 93.0608 69.5024 93.1608 69.3024 93.1608ZM79.8024 89.0608C79.1024 89.7608 78.1024 90.1608 77.2024 90.1608C76.9024 90.1608 76.7024 90.1608 76.4024 90.0608C75.2024 89.7608 74.2024 88.8608 73.7024 87.6608C73.6024 87.2608 73.8024 86.8608 74.1024 86.7608C74.5024 86.6608 74.9024 86.8608 75.0024 87.1608C75.3024 87.8608 75.9024 88.4608 76.7024 88.6608C76.9024 88.6608 77.0024 88.7608 77.2024 88.7608C77.8024 88.7608 78.4024 88.5608 78.9024 88.0608C79.2024 87.7608 79.6024 87.7608 79.9024 88.0608C80.0024 88.3608 80.0024 88.7608 79.8024 89.0608ZM69.8024 90.5608C70.0024 90.5608 70.1024 90.7608 70.1024 90.9608C70.1024 91.1608 69.9024 91.2608 69.7024 91.2608C68.2024 91.0608 66.7024 90.7608 65.3024 90.4608C65.1024 90.4608 65.0024 90.2608 65.0024 90.0608C65.0024 89.8608 65.2024 89.7608 65.4024 89.7608C66.9024 90.0608 68.4024 90.3608 69.8024 90.5608Z" fill="#C33409"/>
</svg>
