<svg width="129" height="129" viewBox="0 0 129 129" fill="none" xmlns="http://www.w3.org/2000/svg">
<path d="M17.4636 53.7108C19.4636 57.1108 22.5636 58.5108 23.8636 59.1108C27.9636 60.9108 31.8636 60.5108 33.6636 60.3108C34.9636 60.2108 35.5636 60.0108 38.3636 59.6108C37.1636 62.0108 36.5636 64.8108 36.7636 67.4108C36.9636 71.4108 38.9636 74.4108 40.5636 76.4108C41.0636 82.0108 42.1636 87.6108 43.8636 93.0108C44.4636 94.9108 45.1636 96.9108 46.4636 98.4108C48.2636 100.611 50.9636 101.811 53.7636 101.811C55.0636 101.811 56.4636 101.411 57.2636 100.411C58.0636 99.4108 58.0636 97.6108 56.8636 97.0108C55.7636 96.4108 54.9636 96.6108 53.9636 96.0108C51.9636 94.8108 52.4636 90.5108 52.6636 88.9108C52.7636 87.8108 53.0636 86.2108 53.6636 84.4108C57.6636 85.4108 61.3636 85.3108 63.5636 85.3108C64.3636 85.3108 76.9636 85.1108 85.4636 78.4108C89.9636 77.4108 94.4636 76.0108 98.7636 74.2108C99.8636 73.7108 101.064 73.2108 102.264 72.9108C102.764 72.8108 103.264 72.7108 103.764 72.8108C104.064 72.9108 104.364 73.1108 104.664 73.2108C105.164 73.4108 105.664 73.3108 106.164 73.2108C107.364 73.0108 108.564 72.8108 109.564 72.2108C110.564 71.5108 111.264 70.3108 110.964 69.1108C110.764 68.3108 110.064 67.8108 109.564 67.3108C109.164 67.0108 108.864 66.7108 108.364 66.5108C107.364 66.1108 106.264 66.6108 105.264 67.0108C100.964 68.8108 96.3636 70.0108 91.7636 70.5108C92.8636 68.2108 93.4636 66.2108 93.8636 65.3108C94.3636 63.7108 94.4636 62.7108 94.3636 61.5108C94.3636 61.4108 94.3636 61.4108 94.3636 61.3108C94.4636 61.3108 94.5636 61.2108 94.5636 61.2108C95.4636 60.4108 96.6636 59.8108 97.9636 59.7108C98.2636 59.7108 98.5636 59.3108 98.4636 59.0108C98.4636 58.7108 98.0636 58.4108 97.7636 58.5108C96.3636 58.7108 95.0636 59.3108 93.9636 60.2108C93.9636 60.1108 93.8636 60.0108 93.8636 59.9108C93.9636 59.9108 94.0636 59.8108 94.1636 59.7108C94.7636 58.7108 95.6636 57.9108 96.6636 57.3108C96.9636 57.1108 97.0636 56.8108 96.8636 56.5108C96.6636 56.2108 96.3636 56.1108 96.0636 56.3108C94.9636 57.0108 93.9636 57.9108 93.2636 59.0108C91.9636 57.4108 89.9636 56.2108 87.9636 55.3108C87.1636 55.0108 86.2636 54.6108 85.4636 54.4108C84.8636 52.4108 84.0636 50.5108 82.8636 48.9108C82.6636 48.6108 82.3636 48.3108 82.0636 48.3108C81.8636 48.3108 81.6636 48.5108 81.4636 48.7108C80.9636 49.3108 80.4636 50.0108 80.0636 50.7108C80.0636 50.6108 79.9636 50.5108 79.9636 50.4108C79.8636 50.2108 79.7636 49.6108 79.2636 49.2108C78.9636 48.9108 78.3636 48.7108 77.9636 49.0108C77.5636 49.2108 77.3636 49.7108 77.3636 50.0108C76.1636 54.9108 75.4636 57.9108 75.7636 59.4108C75.3636 59.6108 74.9636 59.9108 74.5636 60.0108C68.3636 53.4108 66.0636 50.1108 65.4636 48.4108C65.4636 48.3108 64.7636 46.9108 63.5636 45.4108C62.8636 44.5108 61.8636 43.7108 60.6636 43.4108C59.5636 43.1108 58.1636 43.5108 57.6636 44.5108C57.3636 45.2108 57.4636 46.0108 57.8636 46.6108C58.2636 47.2108 58.8636 47.7108 59.5636 48.0108C60.0636 48.2108 60.5636 48.4108 60.9636 48.7108C60.9636 48.7108 61.3636 49.0108 61.6636 49.6108C62.0636 50.3108 62.9636 53.6108 63.9636 58.4108C62.7636 57.5108 61.3636 56.4108 59.1636 55.4108C58.6636 55.2108 57.9636 54.9108 57.1636 54.5108C55.4636 49.5108 54.4636 44.3108 54.0636 39.1108C53.9636 37.9108 53.9636 36.7108 54.3636 35.6108C54.7636 34.5108 55.6636 33.7108 56.3636 32.8108C57.0636 31.9108 57.5636 30.7108 57.1636 29.6108C56.7636 28.5108 55.3636 27.9108 54.1636 28.0108C52.9636 28.1108 51.8636 28.8108 50.9636 29.7108C48.3636 32.1108 46.7636 35.3108 45.4636 38.6108C43.3636 43.9108 41.8636 49.5108 41.0636 55.2108C39.0636 55.8108 36.6636 56.4108 33.8636 56.5108C30.6636 56.6108 27.3636 56.8108 24.3636 54.6108C23.7636 54.1108 21.9636 52.8108 21.1636 50.5108C20.9636 49.9108 20.5636 48.6108 20.7636 46.9108C20.9636 45.7108 21.3636 45.1108 21.2636 43.7108C21.2636 43.0108 21.1636 42.1108 20.5636 41.7108C19.9636 41.2108 18.9636 41.4108 18.3636 41.7108C16.2636 42.7108 16.0636 46.1108 16.0636 47.4108C15.9636 47.9108 15.7636 50.8108 17.4636 53.7108ZM88.5636 61.0108C87.9636 61.3108 87.3636 61.5108 86.6636 61.5108C86.2636 61.5108 85.9636 61.4108 85.5636 61.3108C85.2636 61.2108 85.0636 60.8108 85.1636 60.5108C85.2636 60.2108 85.6636 60.0108 85.9636 60.1108C86.1636 60.2108 86.3636 60.2108 86.6636 60.2108C87.0636 60.2108 87.5636 60.1108 87.9636 59.8108C88.3636 59.6108 88.6636 59.2108 88.8636 58.9108C88.9636 58.6108 89.3636 58.5108 89.6636 58.6108C89.9636 58.7108 90.0636 59.1108 89.9636 59.4108C89.6636 60.2108 89.1636 60.7108 88.5636 61.0108ZM84.1636 68.3108C85.0636 67.5108 86.0636 66.9108 87.1636 66.5108C87.3636 66.4108 87.6636 66.5108 87.7636 66.8108C87.8636 67.0108 87.7636 67.3108 87.4636 67.4108C86.4636 67.8108 85.5636 68.4108 84.7636 69.1108C84.5636 69.3108 84.2636 69.3108 84.1636 69.1108C83.9636 68.8108 83.9636 68.5108 84.1636 68.3108ZM83.4636 66.1108C84.3636 65.5108 85.4636 65.1108 86.5636 64.9108C86.7636 64.9108 87.0636 65.0108 87.0636 65.3108C87.0636 65.5108 86.9636 65.8108 86.6636 65.8108C85.6636 66.0108 84.7636 66.4108 83.9636 66.9108C83.7636 67.0108 83.4636 67.0108 83.3636 66.8108C83.2636 66.5108 83.2636 66.2108 83.4636 66.1108Z" fill="#C33409"/>
</svg>
