<svg width="129" height="129" viewBox="0 0 129 129" fill="none" xmlns="http://www.w3.org/2000/svg">
<path d="M46.4012 88.231C46.4012 88.631 46.5012 88.8311 46.7012 89.0311C46.8012 89.1311 46.9012 89.231 47.0012 89.231C47.1012 89.231 47.3012 89.3311 47.5012 89.3311C47.7012 89.3311 47.8012 89.3311 47.9012 89.3311C48.4012 89.2311 48.9012 88.8311 49.5012 88.5311C49.8012 88.3311 50.2012 88.4311 50.4012 88.6311C50.5012 88.7311 50.7012 88.931 51.1012 89.231C51.5012 89.431 52.0012 89.6311 52.4012 89.6311C52.5012 89.6311 52.6012 89.6311 52.7012 89.6311C53.2012 89.5311 53.6012 89.2311 54.0012 88.8311C54.4012 88.4311 54.6012 88.0311 54.7012 87.8311C54.9012 87.6311 54.9012 87.4311 55.1012 87.1311C55.2012 86.9311 55.4012 86.6311 55.7012 86.3311C56.1012 85.8311 56.6012 85.4311 57.6012 84.9311C58.7012 84.4311 59.8012 84.0311 60.9012 83.8311C60.9012 83.8311 60.9012 83.8311 61.0012 83.8311C60.8012 83.7311 60.6012 83.6311 60.3012 83.5311C58.2012 82.7311 56.4012 82.1311 55.0012 81.9311C54.6012 81.8311 54.1012 81.8311 53.6012 81.8311C52.1012 81.8311 50.4012 82.2311 49.1012 82.8311C47.7012 83.4311 46.6012 84.3311 45.9012 85.4311C45.9012 85.4311 45.5012 86.0311 45.3012 86.5311C45.4012 86.4311 45.6012 86.4311 45.7012 86.3311C46.0012 86.2311 46.4012 86.2311 46.6012 86.5311C46.8012 86.7311 46.9012 87.1311 46.7012 87.4311C46.5012 87.5311 46.4012 87.931 46.4012 88.231Z" fill="#C33409"/>
<path d="M57.0012 99.831C58.6012 100.131 60.6012 100.431 62.9012 100.431C65.2012 100.431 67.2012 100.131 68.8012 99.731C66.8012 98.731 64.9012 97.631 62.9012 96.631C60.9012 97.831 58.9012 98.931 57.0012 99.831Z" fill="#C33409"/>
<path d="M106.301 60.3311C105.901 57.3311 101.401 58.7311 102.501 61.3311C101.401 61.1311 100.701 61.7311 100.401 62.5311C100.101 63.4311 100.501 64.3311 101.401 64.7311C99.1012 64.8311 95.4012 64.7311 91.7012 62.7311C84.8012 59.1311 82.1012 51.4311 81.2012 48.4311C82.6012 48.2311 84.1012 48.1311 85.5012 47.9311C85.9012 47.9311 86.2012 47.5311 86.2012 47.1311C86.2012 46.7311 85.8012 46.4311 85.4012 46.4311C83.9012 46.6311 82.4012 46.8311 80.9012 46.9311C80.8012 46.4311 80.7012 46.0311 80.6012 45.5311C81.9012 45.2311 83.2012 45.0311 84.5012 44.8311C84.9012 44.8311 85.2012 44.4311 85.2012 44.0311C85.2012 43.6311 84.8012 43.3311 84.4012 43.3311C83.0012 43.5311 81.7012 43.7311 80.4012 44.0311C79.5012 39.2311 79.2012 34.5311 76.5012 29.3311C74.1012 24.5311 71.8012 26.2311 69.6012 30.5311C64.0012 29.2311 57.7012 27.8311 52.3012 30.6311C50.0012 26.0311 47.6012 23.7311 45.3012 29.1311C42.8012 35.1311 42.6012 39.8311 41.7012 44.6311C40.2012 44.2311 38.6012 43.8311 37.1012 43.4311C36.7012 43.3311 36.3012 43.5311 36.2012 43.9311C36.1012 44.3311 36.3012 44.7311 36.7012 44.8311C38.3012 45.2311 39.8012 45.6311 41.4012 46.0311C41.4012 46.1311 41.3012 46.3311 41.3012 46.4311C41.2012 46.6311 41.2012 46.9311 41.1012 47.2311C39.6012 47.0311 38.1012 46.8311 36.6012 46.6311C36.2012 46.5311 35.8012 46.8311 35.7012 47.2311C35.6012 47.6311 35.9012 48.0311 36.3012 48.1311C37.8012 48.3311 39.2012 48.5311 40.7012 48.7311C39.7012 52.7311 37.8012 58.1311 33.2012 61.3311C29.9012 63.6311 26.3012 64.1311 24.0012 64.2311C25.7012 62.9311 23.9012 60.4311 22.1012 61.7311C23.1012 59.0311 19.2012 57.4311 17.9012 59.9311C17.7012 59.7311 17.2012 59.2311 16.7012 59.2311C15.7012 59.3311 15.2012 60.7311 15.1012 61.1311V61.2311C14.6012 62.8311 16.1012 65.0311 16.4012 65.5311C16.8012 66.0311 17.4012 66.8311 18.4012 67.6311C20.8012 69.5311 23.6012 69.6311 26.3012 69.8311C28.4012 69.9311 31.4012 69.8311 35.0012 68.8311C28.0012 76.0311 26.6012 86.2311 31.0012 93.2311C33.7012 97.5311 38.7012 100.831 44.3012 101.431C45.8012 101.631 47.1012 101.531 48.3012 101.431C48.4012 101.331 48.4012 101.331 48.5012 101.331C49.8012 100.931 57.2012 98.3311 62.7012 94.4311C64.4012 93.2311 65.9012 92.1311 67.7012 90.3311C68.3012 89.7311 68.6012 89.3311 69.1012 88.8311C69.5012 88.3311 70.0012 87.8311 70.8012 87.1311C72.0012 86.0311 72.9012 85.3311 73.6012 84.8311C74.3012 84.3311 74.9012 84.0311 75.2012 83.9311C76.4012 83.3311 77.5012 83.1311 78.2012 82.9311C78.2012 82.9311 78.3012 82.9311 78.3012 82.8311C78.4012 82.8311 78.4012 82.7311 78.5012 82.7311L78.4012 82.6311C78.2012 82.5311 77.9012 82.4311 77.8012 82.3311C77.5012 82.2311 77.2012 82.1311 77.0012 82.1311C76.6012 82.1311 76.1012 82.2311 75.9012 82.3311C75.7012 82.4311 75.4012 82.3311 75.2012 82.2311C74.9012 82.0311 74.6012 81.7311 74.1012 81.5311C74.1012 81.5311 74.0012 81.5311 73.9012 81.4311C73.7012 81.3311 73.5012 81.3311 73.2012 81.2311C72.6012 81.0311 71.8012 80.9311 70.9012 80.9311C70.0012 80.9311 68.8012 81.1311 67.5012 81.7311C66.2012 82.2311 64.9012 83.0311 63.5012 84.2311C63.4012 84.2311 63.4012 84.3311 63.3012 84.3311C63.3012 84.3311 63.3012 84.3311 63.2012 84.3311C63.2012 84.3311 63.2012 84.3311 63.1012 84.3311C62.8012 84.4311 62.0012 84.5311 61.0012 84.7311C60.0012 84.9311 59.0012 85.3311 58.1012 85.7311C57.3012 86.1311 57.0012 86.4311 56.7012 86.7311C56.5012 86.9311 56.4012 87.1311 56.3012 87.2311C56.2012 87.4311 56.1012 87.6311 55.9012 88.0311C55.8012 88.2311 55.5012 88.7311 55.0012 89.2311C54.5012 89.7311 53.8012 90.2311 52.9012 90.4311C52.7012 90.4311 52.5012 90.5311 52.3012 90.5311C51.4012 90.5311 50.7012 90.2311 50.2012 89.8311C50.0012 89.7311 49.8012 89.5311 49.7012 89.4311C49.3012 89.7311 48.8012 89.9311 48.2012 90.1311C48.0012 90.2311 47.8012 90.2311 47.4012 90.2311C47.1012 90.2311 46.8012 90.2311 46.5012 90.1311C46.2012 90.0311 45.8012 89.8311 45.5012 89.5311C45.0012 89.0311 44.8012 88.3311 44.8012 87.7311C44.8012 87.6311 44.8012 87.5311 44.8012 87.4311C44.8012 87.4311 44.8012 87.4311 44.7012 87.4311C44.6012 87.4311 44.4012 87.4311 44.3012 87.3311C44.2012 87.3311 44.0012 87.2311 43.9012 87.0311C43.8012 86.9311 43.7012 86.7311 43.6012 86.6311C43.6012 86.4311 43.5012 86.3311 43.5012 86.2311C43.5012 85.9311 43.6012 85.6311 43.7012 85.4311C43.8012 85.1311 43.9012 84.9311 44.0012 84.7311C44.2012 84.3311 44.4012 83.9311 44.5012 83.9311C45.3012 82.6311 46.6012 81.6311 48.1012 80.8311C47.7012 80.6311 47.2012 80.4311 46.7012 80.2311C46.3012 80.1311 46.1012 79.7311 46.2012 79.3311C46.3012 78.9311 46.7012 78.7311 47.1012 78.8311C48.3012 79.2311 49.2012 79.7311 49.8012 80.1311C51.0012 79.8311 52.2012 79.6311 53.4012 79.6311C53.9012 79.6311 54.5012 79.6311 55.0012 79.7311C56.7012 79.9311 58.5012 80.6311 60.6012 81.4311C61.4012 81.7311 62.0012 82.0311 62.2012 82.1311C62.5012 82.2311 62.7012 82.4311 62.9012 82.5311C64.2012 81.5311 65.6012 80.7311 66.8012 80.1311C68.2012 79.5311 69.6012 79.2311 70.8012 79.2311C73.0012 79.2311 74.6012 80.0311 74.7012 80.0311C75.1012 80.2311 75.5012 80.4311 75.8012 80.6311C76.1012 80.5311 76.5012 80.4311 77.0012 80.4311C77.4012 80.4311 77.9012 80.5311 78.4012 80.6311C78.5012 80.6311 78.7012 80.7311 79.0012 80.9311C79.3012 81.0311 79.6012 81.2311 79.8012 81.5311C79.9012 81.6311 79.9012 81.7311 80.0012 81.8311C80.8012 81.6311 81.5012 81.5311 82.3012 81.5311C82.8012 81.5311 83.3012 81.5311 83.8012 81.6311C84.2012 81.7311 84.5012 82.1311 84.4012 82.5311C84.3012 82.9311 83.9012 83.2311 83.5012 83.1311C83.1012 83.0311 82.7012 83.0311 82.2012 83.0311C81.1012 83.0311 80.0012 83.3311 79.1012 83.7311C79.0012 83.7311 79.0012 83.8311 78.9012 83.8311C78.8012 83.9311 78.6012 83.9311 78.5012 84.0311C78.3012 84.1311 78.1012 84.1311 77.9012 84.1311C77.3012 84.2311 76.6012 84.5311 75.7012 84.9311C75.4012 85.0311 75.0012 85.3311 74.3012 85.7311C73.6012 86.1311 72.8012 86.8311 71.6012 87.9311C70.9012 88.6311 70.4012 89.1311 70.0012 89.5311C69.6012 90.0311 69.2012 90.4311 68.6012 91.0311C66.9012 92.7311 65.4012 93.8311 63.9012 94.9311C66.4012 96.2311 68.9012 97.6311 71.5012 98.9311C71.6012 99.0311 71.7012 99.1311 71.8012 99.2311C74.3012 100.431 79.5012 102.131 84.8012 99.8311C88.8012 98.1311 90.8012 95.0311 91.4012 94.0311C95.5012 87.4311 94.0012 77.5311 88.0012 68.7311C93.3012 71.1311 101.001 71.9311 106.201 68.8311C109.601 67.6311 112.601 57.9311 106.301 60.3311ZM53.9012 38.7311C52.9012 39.9311 51.4012 40.6311 49.8012 40.6311C49.2012 40.6311 48.5012 40.5311 47.9012 40.2311C47.5012 40.0311 47.3012 39.6311 47.5012 39.2311C47.7012 38.8311 48.1012 38.6311 48.5012 38.8311C48.9012 39.0311 49.4012 39.1311 49.8012 39.1311C50.9012 39.1311 52.0012 38.6311 52.7012 37.8311C53.0012 37.5311 53.4012 37.4311 53.8012 37.7311C54.1012 37.9311 54.2012 38.3311 53.9012 38.7311ZM66.0012 47.1311C65.9012 47.2311 65.7012 47.5311 65.2012 47.9311C64.7012 48.2311 64.0012 48.6311 63.1012 48.6311C63.0012 48.6311 63.0012 48.6311 62.9012 48.6311C62.1012 48.6311 61.4012 48.2311 61.0012 47.9311C60.8012 47.8311 60.7012 47.6311 60.6012 47.5311C60.4012 47.7311 60.1012 47.9311 59.7012 48.1311C59.4012 48.3311 58.8012 48.6311 58.0012 48.6311C57.9012 48.6311 57.9012 48.6311 57.8012 48.6311C56.8012 48.5311 56.1012 48.0311 55.8012 47.7311C55.5012 47.4311 55.5012 46.9311 55.7012 46.6311C55.9012 46.3311 56.5012 46.3311 56.8012 46.5311C56.9012 46.6311 57.3012 46.9311 57.9012 47.0311H58.0012C58.4012 47.0311 58.7012 46.9311 59.0012 46.7311C59.4012 46.5311 59.7012 46.2311 59.9012 45.9311C59.8012 44.0311 59.6012 42.2311 59.5012 40.3311C59.5012 40.3311 59.5012 40.3311 59.5012 40.2311C59.3012 40.2311 59.0012 40.2311 58.8012 40.1311C58.4012 40.0311 58.1012 39.6311 58.2012 39.2311C58.3012 38.8311 58.7012 38.5311 59.1012 38.6311C59.3012 38.6311 59.5012 38.7311 59.7012 38.7311C60.1012 38.7311 60.5012 38.6311 60.9012 38.5311C61.3012 38.3311 61.7012 38.5311 61.9012 38.9311C62.1012 39.3311 61.9012 39.7311 61.5012 39.9311C61.3012 40.0311 61.1012 40.0311 60.9012 40.1311V40.2311C61.0012 42.1311 61.2012 43.9311 61.3012 45.8311C61.3012 45.9311 61.3012 46.0311 61.3012 46.1311C61.3012 46.1311 61.3012 46.1311 61.3012 46.2311C61.3012 46.3311 61.5012 46.4311 61.8012 46.6311C62.1012 46.8311 62.5012 47.0311 62.9012 47.0311H63.0012C63.5012 47.0311 63.9012 46.8311 64.2012 46.6311C64.5012 46.4311 64.7012 46.2311 64.7012 46.1311C65.0012 45.8311 65.4012 45.7311 65.8012 46.0311C66.2012 46.3311 66.2012 46.8311 66.0012 47.1311ZM72.9012 39.7311C72.2012 40.3311 71.3012 40.5311 70.5012 40.5311C70.1012 40.5311 69.7012 40.5311 69.3012 40.4311C68.1012 40.2311 66.9012 39.7311 65.9012 38.9311C65.6012 38.7311 65.5012 38.2311 65.7012 37.8311C65.9012 37.5311 66.4012 37.4311 66.8012 37.6311C67.6012 38.2311 68.6012 38.6311 69.6012 38.8311C69.9012 38.9311 70.2012 38.9311 70.5012 38.9311C71.1012 38.9311 71.6012 38.8311 72.0012 38.5311C72.3012 38.2311 72.8012 38.3311 73.1012 38.6311C73.2012 38.9311 73.2012 39.4311 72.9012 39.7311Z" fill="#C33409"/>
</svg>
