<svg width="129" height="129" viewBox="0 0 129 129" fill="none" xmlns="http://www.w3.org/2000/svg">
<path d="M114 31.4C113.3 28.9 112.1 26.9 111.6 26.2C110.8 25 110.2 24.1 109.2 23.2C108.8 22.9 105.8 20.5 101.8 21C101.2 21.1 97.3 21.6 96.8 23.8C96.5 24.9 97.1 26.3 98.1 26.8C98.9 27.2 99.5 26.7 100.7 26.6C103.3 26.4 105.3 28.4 105.5 28.6C107.7 30.8 107.4 34.1 107.4 34.7C106.8 41.7 97.6 46.8 91.8 48.6C89.3 49.4 87.1 49.7 84.8 50C79 45.8 71.8 43.8 65.4 44C55.1 44.2 48 50.1 42.2 54.8C33.4 62 28.9 70.6 26.7 74.8C25 78.1 24.1 80.7 23.3 82.9C22.4 85.4 21.8 87.3 21.4 88.8C21.2 89.2001 19.2 93.4 19.5 97.6C19.6 98.3 19.7 99.2 20.4 99.7C20.6 99.8 21.1 100.2 22.4 99.8C23.1 99.6001 24 99.2 25 98.7C25.6 97.9 26 97.2 26 97C28.6 90.2 31.1 83.3 33.7 76.5C33.8 76.1 34.3 75.9 34.7 76.1C35.1 76.2 35.3 76.7 35.1 77.1C32.5 84 30 90.8 27.4 97.7V97.8C27.4 97.8 26.5 99.6 25.2 101C24.7 101.5 24.2 101.9 23.6 102.2C22.8 102.6 22.4 102.8 22.4 102.8H22.3C21.9 102.9 21.5 103 21.2 103.1C20.9 103.2 20.7 103.3 20.5 103.5C20.4 103.7 20.3 103.8 20.2 103.9C20.2 104 20.1 104.2 20 104.5C19.9 104.8 19.8 105.2 19.8 105.8C19.8 106.2 19.9 106.5 20 106.9C20.3 107.7 20.9 108.1 21.2 108.3C22 108.9 22.9 109 23.8 109C25.1 109 26.3 108.6 26.6 108.5C27.7 108.1 28.5 107.5 28.8 107.3C32.3 104.5 34.2 100.2 34.4 99.7C35.8 96.3 38.7 91.4 45.4 84.3C45.7 84 46.2 84 46.5 84.3C46.8 84.6 46.8 85.1 46.5 85.4C39.9 92.4 37.1 97.2001 35.8 100.4C35.8 100.4 35.3 101.7 34.3 103.3C33.3 105 31.8 107 29.7 108.6C29.6 108.7 29.5 108.7 29.4 108.8C29.7 108.9 29.9 108.9 30.3 108.9C31.3 108.9 32.5 108.4 33.1 108C33.4 107.8 33.5 107.7 33.9 107.4C34.2 107.1 34.7 106.5 35.5 105.5C36.4 104.4 37.1 103.4 37.6 102.7C38.1 101.9 38.5 101.3 38.7 100.9C39.2 100.8 39.7 100.7 40.3 100.6C40.5 100.6 40.7 100.6 40.9 100.5C42.6 100.4 43.4 100.7 44.3 100.8C44.7 102.3 45.1 103.8 45.4 105.2C45.5 105.6 45.9 105.9 46.3 105.7C46.7 105.6 47 105.2 46.8 104.8C46.4 103.4 46.1 101.9 45.7 100.5H45.8C45.9 100.4 46.1 100.4 46.2 100.3C47 101.6 47.9 102.9 48.7 104.2C48.9 104.6 49.4 104.7 49.7 104.4C50.1 104.2 50.2 103.7 49.9 103.4C49 102.1 48.2 100.7 47.3 99.4C48.5 98.2001 49.2 96.7001 49.3 96.3C50.3 93.6001 49.5 91.5 51.3 90C51.6 89.7 51.9 89.6 52.2 89.4C52.5 89.2001 57.4 86.8 61.1 86.5C66.7 86 68.3 90.7001 74.3 91.9C75.2 92 76 92 76.8 92C78.5 92.4 79.3 91.5 84.5 91.6C88.3 91.7 90.6 91.8 93.2 93.1C93.2 93.1 97 95.4 98.9 99.3C99.2 99.9 99.4 100.8 98.9 101.3C98.4 101.8 97.4 101.3 96.8 101.7C95.9 102.4 95.8999 105 97.2 106.3C98.7999 108 102.1 107.4 104 106.1C106.1 104.7 106.6 102.4 107 100.9C107.9 97.1 106.9 93.8 106.5 92.6C104.8 87.3 100.8 77.3 94.9 64.6C94.6 63.4 94.2 62.2 93.8 61.1C93 59.3 92 57.6 90.9 56C95.4 55.3 101.4 53.5 106.8 49.3C110.9 46.1 112.4 43.4 112.7 42.6C113.2 41.8 115.5 36.9 114 31.4Z" fill="#C33409"/>
</svg>
